<svg fill="none" height="1000" viewBox="0 0 1000 1000" width="1000" xmlns="http://www.w3.org/2000/svg"><path d="m0 0h1000v1000h-1000z" fill="#dbdbdb"/><path clip-rule="evenodd" d="m600 440c0-11.046-8.954-20-20-20h-160c-11.046 0-20 8.954-20 20v120c0 11.046 8.954 20 20 20h160c11.046 0 20-8.954 20-20zm-125 10c8.284 0 15 6.716 15 15s-6.716 15-15 15-15-6.716-15-15 6.716-15 15-15zm90 100c2.761 0 5-2.238 5-5v-3.4c-.007-1.081-.357-2.131-1-3l-42.5-56.7c-.967-1.223-2.441-1.936-4-1.936s-3.033.713-4 1.936l-28.8 37.2c-.954 1.247-2.43 1.985-4 2-1.473.002-2.868-.659-3.8-1.8l-14.5-17.5c-.963-1.156-2.395-1.817-3.9-1.8-1.373.144-2.632.827-3.5 1.9l-28.9 36.7c-.713.837-1.104 1.901-1.1 3v3.4c0 2.762 2.239 5 5 5z" fill="#000" fill-opacity=".15" fill-rule="evenodd"/></svg>